# xmcd
#
# Track frame offsets:
#	150
#	30887
#	59306
#	101201
#	173506
#	236242
#
# Disc length: 3727 seconds
#
# Revision: 0
# Processed by: cddbd v1.5.2PL0 Copyright (c) Steve Scherf et al.
# Submitted via: audiograbber 1.83.01
#
DISCID=430e8d06
DTITLE=Grateful Dead - 93-06-06 Giants Stadium, East Rutherford NJ
DYEAR=1900
DGENRE=
TTITLE0=Bertha
TTITLE1=Good Lovin'
TTITLE2=Uncle John's Band
TTITLE3=Playing In The Band
TTITLE4=Drums
TTITLE5=Jam
EXTD=
EXTT0=
EXTT1=
EXTT2=
EXTT3=
EXTT4=
EXTT5=
PLAYORDER=
